<?xml version="1.0" encoding="UTF-8"?>
<svg version="1.1" xmlns="http://www.w3.org/2000/svg" width="512" height="512">
<path d="M0 0 C0.90186035 0.17692383 1.8037207 0.35384766 2.73291016 0.53613281 C9.20599895 1.83501287 15.60888488 3.34657126 22 5 C22.82000488 5.20963379 23.64000977 5.41926758 24.48486328 5.63525391 C58.17024255 14.44485883 88.96649009 31.29229379 116 53 C117.50046875 54.19109375 117.50046875 54.19109375 119.03125 55.40625 C132.89778302 66.7515952 146.2899831 79.6029281 157 94 C157.45971191 94.59973633 157.91942383 95.19947266 158.39306641 95.81738281 C183.7457788 128.9479423 200.63105558 166.93602242 208 208 C208.16226074 208.83128418 208.32452148 209.66256836 208.49169922 210.51904297 C213.76694663 238.13651472 213.55756833 270.45402542 208 298 C207.82307617 298.90186035 207.64615234 299.8037207 207.46386719 300.73291016 C206.16498713 307.20599895 204.65342874 313.60888488 203 320 C202.79036621 320.82000488 202.58073242 321.64000977 202.36474609 322.48486328 C193.55514117 356.17024255 176.70770621 386.96649009 155 414 C154.2059375 415.0003125 153.411875 416.000625 152.59375 417.03125 C141.2484048 430.89778302 128.3970719 444.2899831 114 455 C113.10039551 455.68956787 113.10039551 455.68956787 112.18261719 456.39306641 C79.0520577 481.7457788 41.06397758 498.63105558 0 506 C-0.83128418 506.16226074 -1.66256836 506.32452148 -2.51904297 506.49169922 C-30.13651472 511.76694663 -62.45402542 511.55756833 -90 506 C-90.90186035 505.82307617 -91.8037207 505.64615234 -92.73291016 505.46386719 C-99.20599895 504.16498713 -105.60888488 502.65342874 -112 501 C-112.82000488 500.79036621 -113.64000977 500.58073242 -114.48486328 500.36474609 C-148.17024255 491.55514117 -178.96649009 474.70770621 -206 453 C-207.0003125 452.2059375 -208.000625 451.411875 -209.03125 450.59375 C-222.89778302 439.2484048 -236.2899831 426.3970719 -247 412 C-247.68956787 411.10039551 -247.68956787 411.10039551 -248.39306641 410.18261719 C-273.7457788 377.0520577 -290.63105558 339.06397758 -298 298 C-298.16226074 297.16871582 -298.32452148 296.33743164 -298.49169922 295.48095703 C-303.76694663 267.86348528 -303.55756833 235.54597458 -298 208 C-297.82307617 207.09813965 -297.64615234 206.1962793 -297.46386719 205.26708984 C-296.16498713 198.79400105 -294.65342874 192.39111512 -293 186 C-292.79036621 185.17999512 -292.58073242 184.35999023 -292.36474609 183.51513672 C-283.55514117 149.82975745 -266.70770621 119.03350991 -245 92 C-244.2059375 90.9996875 -243.411875 89.999375 -242.59375 88.96875 C-231.2484048 75.10221698 -218.3970719 61.7100169 -204 51 C-203.40026367 50.54028809 -202.80052734 50.08057617 -202.18261719 49.60693359 C-169.0520577 24.2542212 -131.06397758 7.36894442 -90 0 C-89.16871582 -0.16226074 -88.33743164 -0.32452148 -87.48095703 -0.49169922 C-59.86348528 -5.76694663 -27.54597458 -5.55756833 0 0 Z " fill="#003EDA" transform="translate(301,3)"/>
<path d="M0 0 C0 35.97 0 71.94 0 109 C-3.96 110.65 -7.92 112.3 -12 114 C-26.89023713 120.92253504 -39.73513208 129.07430541 -52 140 C-52.66902344 140.58394531 -53.33804688 141.16789063 -54.02734375 141.76953125 C-73.71463275 160.06712926 -86.66106277 190.01070041 -88.20703125 216.5546875 C-89.49940555 252.66731798 -80.31981368 284.82606399 -55.59375 311.75 C-39.90325793 328.34966077 -21.59037447 338.80320851 0 346 C0 353.92 0 361.84 0 370 C-19.40628249 366.35220254 -36.61822787 360.34675887 -54 351 C-54.59087402 350.68981934 -55.18174805 350.37963867 -55.79052734 350.06005859 C-69.84704186 342.65385382 -82.56788351 333.01258928 -94 322 C-94.53334961 321.49243164 -95.06669922 320.98486328 -95.61621094 320.46191406 C-103.90851904 312.53959182 -111.41275421 304.40698495 -118 295 C-118.43376953 294.38882324 -118.86753906 293.77764648 -119.31445312 293.14794922 C-136.67260203 268.42819687 -147.69133631 239.85540864 -152 210 C-152.10094971 209.31067383 -152.20189941 208.62134766 -152.3059082 207.91113281 C-158.50886162 159.82294511 -144.77616722 109.04336743 -115.28417969 70.64257812 C-89.56546468 37.74609247 -44.12316579 0 0 0 Z " fill="#FDFEFE" transform="translate(217,71)"/>
<path d="M0 0 C37.29275343 3.04741601 71.61795215 25.89263382 98 51 C98.70511719 51.65226562 99.41023438 52.30453125 100.13671875 52.9765625 C133.17980655 84.47808636 151.79047838 131.81879865 153.25390625 176.87890625 C153.93892511 208.77795127 148.29233839 239.33977506 134 268 C133.6685498 268.66854004 133.33709961 269.33708008 132.99560547 270.02587891 C124.6043523 286.76329303 113.79383286 301.35324495 101 315 C100.54028809 315.49371094 100.08057617 315.98742187 99.60693359 316.49609375 C78.98240293 338.47002081 52.77782543 354.16828547 24.3125 363.8125 C23.49410645 364.09061523 22.67571289 364.36873047 21.83251953 364.65527344 C14.57826151 367.01071969 7.57181831 368.3774675 0 370 C0 333.7 0 297.4 0 260 C4.95 258.02 4.95 258.02 10 256 C21.93628368 250.89213086 33.12365024 245.5404909 43 237 C43.88945312 236.23558594 44.77890625 235.47117187 45.6953125 234.68359375 C48.17319285 232.49788138 50.5910087 230.26107078 53 228 C53.88558594 227.22849609 53.88558594 227.22849609 54.7890625 226.44140625 C70.06353227 212.50616725 79.39554943 191.47753633 85 172 C85.28278809 171.02909424 85.28278809 171.02909424 85.57128906 170.03857422 C93.78219481 139.86387363 87.18094222 106.24625042 72.05859375 79.4609375 C56.63690981 53.07964445 32.41880152 34.6660215 3.73828125 24.98046875 C1 24 1 24 0 23 C-0.08713831 21.29227642 -0.10700007 19.58101351 -0.09765625 17.87109375 C-0.09443359 16.83662109 -0.09121094 15.80214844 -0.08789062 14.73632812 C-0.07951172 13.64771484 -0.07113281 12.55910156 -0.0625 11.4375 C-0.05798828 10.34501953 -0.05347656 9.25253906 -0.04882812 8.12695312 C-0.03699826 5.41791505 -0.02051543 2.70898401 0 0 Z " fill="#FDFEFE" transform="translate(295,71)"/>
<path d="M0 0 C5.34966063 0.56400498 9.4020855 2.41499276 14.1328125 4.796875 C14.91472458 5.18227448 15.69663666 5.56767395 16.50224304 5.9647522 C18.17765905 6.7912931 19.851397 7.62124268 21.52359009 8.45428467 C25.91018684 10.63916935 30.30901023 12.79916623 34.70703125 14.9609375 C35.58431381 15.39286407 36.46159637 15.82479065 37.36546326 16.26980591 C46.22667535 20.6231182 55.16822012 24.78827974 64.14306641 28.90136719 C70.49273599 31.81489666 76.77462152 34.82898834 83 38 C82.53660345 48.66292762 81.14582183 58.84708595 79.125 69.3125 C78.71104513 71.51071985 78.30022139 73.70951137 77.88943481 75.9083252 C77.62179445 77.33942379 77.35315629 78.77033618 77.08346558 80.2010498 C76.11689849 85.33275343 75.21119416 90.47060404 74.375 95.625 C72.66900517 106.09809075 70.8296061 116.54790341 69 127 C58.65066523 122.92358898 48.54095185 118.36102659 38.62451172 113.32910156 C21.26012858 104.53711373 3.57850482 96.3533638 -14 88 C-14.17220522 82.14502258 -13.57922289 76.96658499 -12.375 71.25 C-10.36778199 61.24158299 -8.65842598 51.19561822 -7 41.125 C-6.48730612 38.01817513 -5.97421241 34.91141642 -5.4609375 31.8046875 C-5.33662354 31.05169373 -5.21230957 30.29869995 -5.08422852 29.52288818 C-3.45433019 19.67070613 -1.73426028 9.83427596 0 0 Z " fill="#FDFDFE" transform="translate(221,193)"/>
</svg>
