<svg xmlns="http://www.w3.org/2000/svg" width="500" height="500" viewBox="0 0 500 500">
<g>
<path d="M 215.81 424.50 C215.55,428.65 215.16,429.53 213.50,429.69 C212.40,429.79 211.05,429.72 210.50,429.52 C209.95,429.33 205.45,427.94 200.50,426.44 C180.38,420.34 149.87,403.27 136.23,390.47 C133.63,388.03 130.98,386.03 130.35,386.02 C129.72,386.01 128.14,384.35 126.85,382.34 C125.56,380.32 123.82,377.62 123.00,376.33 C122.18,375.04 120.82,373.77 120.00,373.50 C119.18,373.24 117.03,371.10 115.24,368.76 C107.04,358.06 101.00,349.58 101.00,348.76 C101.00,348.27 99.95,346.43 98.66,344.68 C95.21,339.98 87.17,323.83 86.56,320.34 C86.27,318.68 85.16,315.33 84.10,312.91 C83.03,310.48 81.86,306.25 81.49,303.50 C81.12,300.75 80.22,296.25 79.49,293.50 C76.46,282.10 74.74,266.12 75.41,255.71 C76.34,241.49 78.82,224.74 81.08,217.56 C82.12,214.23 82.98,210.50 82.99,209.28 C83.00,206.82 84.76,202.66 92.37,187.00 C102.55,166.09 112.36,151.62 124.98,138.94 C130.22,133.68 135.62,128.60 137.00,127.65 C142.84,123.62 150.21,118.17 156.08,113.55 C161.77,109.07 175.46,101.31 180.50,99.70 C181.60,99.35 183.18,98.64 184.00,98.12 C186.63,96.48 208.96,89.79 212.29,89.64 L 215.50 89.50 L 215.81 132.00 C215.98,155.38 215.83,177.79 215.47,181.81 L 214.82 189.11 L 210.16 191.20 C207.60,192.34 201.83,195.02 197.35,197.14 C192.86,199.26 188.65,201.00 187.99,201.00 C187.32,201.00 185.36,202.14 183.64,203.53 C181.91,204.93 177.57,208.41 174.00,211.27 C165.81,217.82 153.41,230.32 151.57,233.86 C150.81,235.34 148.56,239.01 146.57,242.03 C142.05,248.89 135.77,265.01 133.54,275.50 C131.12,286.89 130.47,303.24 132.00,314.27 C134.17,329.90 138.27,343.84 142.95,351.57 C145.26,355.38 147.68,359.40 148.32,360.50 C148.97,361.59 150.74,364.13 152.25,366.14 C153.76,368.15 155.01,370.17 155.01,370.64 C155.02,371.11 159.04,375.55 163.95,380.50 C180.18,396.86 179.57,396.46 207.21,409.42 C215.81,413.46 216.44,414.56 215.81,424.50 ZM 303.00 427.54 C299.42,428.20 295.76,429.05 294.85,429.44 C293.92,429.83 292.88,429.61 292.45,428.92 C292.04,428.25 291.75,414.16 291.81,397.60 C291.87,381.05 291.94,359.50 291.96,349.72 C292.00,333.71 292.17,331.88 293.75,331.32 C294.71,330.98 297.39,329.87 299.70,328.85 C302.00,327.83 304.70,326.99 305.70,326.97 C309.78,326.90 330.31,313.41 337.46,306.08 C340.19,303.29 342.99,301.00 343.69,301.00 C344.38,301.00 345.75,299.76 346.72,298.25 C347.68,296.74 350.39,293.02 352.73,290.00 C355.06,286.98 357.89,283.29 359.01,281.81 C362.04,277.82 369.00,263.32 369.00,261.01 C369.00,259.90 369.90,257.32 371.00,255.26 C372.10,253.21 373.24,249.95 373.55,248.02 C373.85,246.08 374.79,240.78 375.63,236.23 C376.90,229.38 376.98,226.03 376.07,216.73 C374.12,196.92 372.84,189.11 370.90,185.30 C369.85,183.25 369.00,180.86 369.00,179.98 C369.00,178.46 365.43,170.24 362.49,165.00 C361.72,163.62 360.14,160.63 358.98,158.35 C357.82,156.06 356.00,153.40 354.94,152.44 C353.87,151.48 353.00,150.17 353.00,149.53 C353.00,148.89 347.13,142.66 339.96,135.69 C331.19,127.16 325.05,122.07 321.21,120.12 C318.07,118.53 312.80,115.83 309.50,114.13 C306.20,112.42 302.91,111.02 302.20,111.01 C299.93,110.99 293.02,106.57 292.44,104.77 C292.13,103.81 291.71,100.07 291.51,96.46 C291.23,91.35 291.48,89.75 292.62,89.32 C295.37,88.26 314.47,94.01 324.50,98.91 C330.00,101.61 336.05,104.39 337.95,105.11 C339.84,105.82 342.77,107.60 344.45,109.07 C346.13,110.53 348.62,112.08 349.98,112.51 C351.34,112.93 355.39,115.59 358.98,118.42 C362.57,121.24 366.85,124.40 368.50,125.42 C375.28,129.63 400.08,157.73 404.13,165.78 C405.43,168.38 407.74,171.98 409.25,173.78 C410.76,175.59 412.01,177.84 412.02,178.78 C412.03,179.73 412.92,181.62 414.00,183.00 C415.08,184.38 415.97,185.97 415.98,186.54 C415.99,187.11 417.51,191.16 419.36,195.54 C421.20,199.92 423.17,204.62 423.73,206.00 C425.31,209.87 427.23,217.94 428.02,224.00 C428.41,227.02 429.47,233.10 430.36,237.50 C432.45,247.70 432.60,273.20 430.62,281.04 C429.86,284.04 428.94,288.94 428.56,291.91 C428.19,294.89 426.56,301.46 424.94,306.52 C423.32,311.57 422.00,316.30 422.00,317.02 C422.00,319.56 415.56,332.61 408.56,344.24 C404.68,350.70 400.74,357.40 399.80,359.13 C398.87,360.87 396.79,363.69 395.17,365.40 C393.55,367.10 391.53,369.85 390.68,371.50 C389.84,373.15 387.70,375.62 385.93,377.00 C381.93,380.10 380.18,381.85 377.00,385.88 C375.62,387.62 372.92,390.12 371.00,391.43 C369.08,392.74 366.00,395.21 364.16,396.93 C362.33,398.64 359.38,400.65 357.62,401.38 C355.86,402.12 351.93,404.75 348.90,407.22 C345.86,409.69 340.71,412.71 337.45,413.93 C334.19,415.15 331.07,416.51 330.51,416.94 C329.96,417.38 326.35,418.97 322.50,420.48 C318.65,422.00 314.15,423.94 312.50,424.79 C310.85,425.65 306.58,426.89 303.00,427.54 ZM 286.17 313.42 C285.80,316.12 285.05,318.48 284.50,318.65 C283.53,318.96 269.83,311.90 267.20,309.74 C266.49,309.16 262.21,306.78 257.70,304.46 C253.19,302.15 245.23,297.96 240.00,295.17 C234.77,292.37 228.02,288.82 225.00,287.27 C221.98,285.72 218.04,283.37 216.25,282.04 C212.55,279.29 212.24,276.80 213.97,263.79 C214.50,259.78 215.65,249.30 216.52,240.50 C217.40,231.70 218.76,221.19 219.56,217.14 C220.35,213.10 221.00,208.57 221.00,207.09 C221.00,202.12 222.59,201.91 230.85,205.76 C235.06,207.73 239.18,209.90 240.00,210.59 C241.41,211.78 248.67,215.66 270.88,227.13 C276.04,229.79 280.76,232.60 281.38,233.36 C281.99,234.13 283.65,235.03 285.06,235.35 C286.47,235.68 289.17,236.99 291.06,238.27 C293.91,240.21 294.49,241.20 294.42,244.05 C294.25,250.93 292.88,265.60 292.00,270.00 C291.50,272.48 290.14,282.15 288.97,291.50 C287.80,300.85 286.54,310.71 286.17,313.42 Z" fill="rgb(228,248,147)"/>
<path d="M 218.39 431.42 C217.73,433.14 213.26,433.43 209.00,432.02 C207.62,431.56 201.35,429.56 195.07,427.56 C182.53,423.58 165.40,415.40 154.50,408.18 C141.26,399.41 122.66,382.76 113.50,371.49 C105.80,362.01 94.56,344.72 91.73,338.00 C90.92,336.08 89.13,332.02 87.74,329.00 C83.14,318.99 80.00,310.02 80.00,306.92 C80.00,305.24 79.52,302.97 78.93,301.88 C78.35,300.78 76.95,295.30 75.83,289.69 C71.82,269.64 73.24,232.10 78.67,214.50 C84.63,195.20 93.18,176.58 102.78,162.00 C125.10,128.07 164.47,99.73 205.00,88.40 C215.02,85.60 217.57,85.44 218.39,87.58 C219.24,89.78 219.05,183.59 218.19,188.42 C217.51,192.26 217.34,192.39 210.44,194.56 C198.15,198.42 181.86,207.69 171.20,216.89 C164.89,222.34 154.44,234.71 153.04,238.40 C152.49,239.83 151.62,241.00 151.09,241.00 C150.57,241.00 149.82,242.01 149.44,243.25 C149.05,244.49 147.96,246.62 147.01,248.00 C143.84,252.58 138.24,269.38 136.67,279.00 C132.53,304.39 132.48,305.78 135.42,318.69 C139.07,334.75 140.47,338.89 146.19,350.45 C155.60,369.49 168.22,383.84 185.66,395.37 C194.86,401.45 210.78,409.00 214.41,409.00 C217.88,409.00 219.00,411.92 219.00,420.99 C219.00,425.86 218.73,430.55 218.39,431.42 ZM 305.50 429.22 C301.65,430.33 296.59,431.45 294.25,431.72 L 290.00 432.20 L 290.00 427.46 C290.00,424.85 289.86,402.25 289.69,377.24 C289.44,340.98 289.64,331.50 290.68,330.47 C291.39,329.75 294.34,328.42 297.24,327.51 C312.30,322.77 327.40,313.44 339.69,301.27 C357.73,283.42 368.91,262.43 372.57,239.50 C374.98,224.36 372.70,193.23 368.60,185.50 C367.73,183.85 367.01,182.13 367.01,181.67 C366.99,179.88 360.54,166.21 357.25,161.00 C353.21,154.60 346.71,145.73 343.05,141.63 C339.38,137.51 323.02,124.59 318.00,121.84 C307.38,116.03 303.08,113.99 297.24,111.98 C293.80,110.80 290.53,109.00 289.99,107.98 C288.78,105.72 288.70,89.02 289.89,87.14 C291.03,85.34 296.74,86.28 308.50,90.19 C318.09,93.37 321.51,94.73 329.60,98.58 C332.40,99.91 335.15,101.00 335.69,101.00 C337.17,101.00 355.41,112.54 364.00,118.91 C380.32,131.02 397.38,149.75 409.15,168.50 C413.62,175.61 423.00,194.12 423.00,195.82 C423.00,196.33 423.85,198.72 424.88,201.12 C427.29,206.72 432.53,228.97 434.04,240.00 C435.67,251.94 434.80,275.95 432.23,290.17 C431.07,296.58 429.66,302.66 429.09,303.67 C428.52,304.67 427.18,308.42 426.11,312.00 C423.04,322.25 417.88,333.78 411.77,344.00 C409.96,347.02 407.59,351.00 406.49,352.84 C401.61,361.02 388.27,377.42 380.25,385.10 C368.59,396.28 353.06,408.01 342.96,413.24 C338.44,415.58 332.66,418.58 330.12,419.90 C324.27,422.93 314.50,426.63 305.50,429.22 ZM 215.81 424.50 C216.44,414.56 215.81,413.46 207.21,409.42 C179.57,396.46 180.18,396.86 163.95,380.50 C159.04,375.55 155.02,371.11 155.01,370.64 C155.01,370.17 153.76,368.15 152.25,366.14 C150.74,364.13 148.97,361.59 148.32,360.50 C147.68,359.40 145.26,355.38 142.95,351.57 C138.27,343.84 134.17,329.90 132.00,314.27 C130.47,303.24 131.12,286.89 133.54,275.50 C135.77,265.01 142.05,248.89 146.57,242.03 C148.56,239.01 150.81,235.34 151.57,233.86 C153.41,230.32 165.81,217.82 174.00,211.27 C177.57,208.41 181.91,204.93 183.64,203.53 C185.36,202.14 187.32,201.00 187.99,201.00 C188.65,201.00 192.86,199.26 197.35,197.14 C201.83,195.02 207.60,192.34 210.16,191.20 L 214.82 189.11 L 215.47 181.81 C215.83,177.79 215.98,155.38 215.81,132.00 L 215.50 89.50 L 212.29 89.64 C208.96,89.79 186.63,96.48 184.00,98.12 C183.18,98.64 181.60,99.35 180.50,99.70 C175.46,101.31 161.77,109.07 156.08,113.55 C150.21,118.17 142.84,123.62 137.00,127.65 C135.62,128.60 130.22,133.68 124.98,138.94 C112.36,151.62 102.55,166.09 92.37,187.00 C84.76,202.66 83.00,206.82 82.99,209.28 C82.98,210.50 82.12,214.23 81.08,217.56 C78.82,224.74 76.34,241.49 75.41,255.71 C74.74,266.12 76.46,282.10 79.49,293.50 C80.22,296.25 81.12,300.75 81.49,303.50 C81.86,306.25 83.03,310.48 84.10,312.91 C85.16,315.33 86.27,318.68 86.56,320.34 C87.17,323.83 95.21,339.98 98.66,344.68 C99.95,346.43 101.00,348.27 101.00,348.76 C101.00,349.58 107.04,358.06 115.24,368.76 C117.03,371.10 119.18,373.24 120.00,373.50 C120.82,373.77 122.18,375.04 123.00,376.33 C123.82,377.62 125.56,380.32 126.85,382.34 C128.14,384.35 129.72,386.01 130.35,386.02 C130.98,386.03 133.63,388.03 136.23,390.47 C149.87,403.27 180.38,420.34 200.50,426.44 C205.45,427.94 209.95,429.33 210.50,429.52 C211.05,429.72 212.40,429.79 213.50,429.69 C215.16,429.53 215.55,428.65 215.81,424.50 ZM 303.00 427.54 C306.58,426.89 310.85,425.65 312.50,424.79 C314.15,423.94 318.65,422.00 322.50,420.48 C326.35,418.97 329.96,417.38 330.51,416.94 C331.07,416.51 334.19,415.15 337.45,413.93 C340.71,412.71 345.86,409.69 348.90,407.22 C351.93,404.75 355.86,402.12 357.62,401.38 C359.38,400.65 362.33,398.64 364.16,396.93 C366.00,395.21 369.08,392.74 371.00,391.43 C372.92,390.12 375.62,387.62 377.00,385.88 C380.18,381.85 381.93,380.10 385.93,377.00 C387.70,375.62 389.84,373.15 390.68,371.50 C391.53,369.85 393.55,367.10 395.17,365.40 C396.79,363.69 398.87,360.87 399.80,359.13 C400.74,357.40 404.68,350.70 408.56,344.24 C415.56,332.61 422.00,319.56 422.00,317.02 C422.00,316.30 423.32,311.57 424.94,306.52 C426.56,301.46 428.19,294.89 428.56,291.91 C428.94,288.94 429.86,284.04 430.62,281.04 C432.60,273.20 432.45,247.70 430.36,237.50 C429.47,233.10 428.41,227.02 428.02,224.00 C427.23,217.94 425.31,209.87 423.73,206.00 C423.17,204.62 421.20,199.92 419.36,195.54 C417.51,191.16 415.99,187.11 415.98,186.54 C415.97,185.97 415.08,184.38 414.00,183.00 C412.92,181.62 412.03,179.73 412.02,178.78 C412.01,177.84 410.76,175.59 409.25,173.78 C407.74,171.98 405.43,168.38 404.13,165.78 C400.08,157.73 375.28,129.63 368.50,125.42 C366.85,124.40 362.57,121.24 358.98,118.42 C355.39,115.59 351.34,112.93 349.98,112.51 C348.62,112.08 346.13,110.53 344.45,109.07 C342.77,107.60 339.84,105.82 337.95,105.11 C336.05,104.39 330.00,101.61 324.50,98.91 C314.47,94.01 295.37,88.26 292.62,89.32 C291.48,89.75 291.23,91.35 291.51,96.46 C291.71,100.07 292.13,103.81 292.44,104.77 C293.02,106.57 299.93,110.99 302.20,111.01 C302.91,111.02 306.20,112.42 309.50,114.13 C312.80,115.83 318.07,118.53 321.21,120.12 C325.05,122.07 331.19,127.16 339.96,135.69 C347.13,142.66 353.00,148.89 353.00,149.53 C353.00,150.17 353.87,151.48 354.94,152.44 C356.00,153.40 357.82,156.06 358.98,158.35 C360.14,160.63 361.72,163.62 362.49,165.00 C365.43,170.24 369.00,178.46 369.00,179.98 C369.00,180.86 369.85,183.25 370.90,185.30 C372.84,189.11 374.12,196.92 376.07,216.73 C376.98,226.03 376.90,229.38 375.63,236.23 C374.79,240.78 373.85,246.08 373.55,248.02 C373.24,249.95 372.10,253.21 371.00,255.26 C369.90,257.32 369.00,259.90 369.00,261.01 C369.00,263.32 362.04,277.82 359.01,281.81 C357.89,283.29 355.06,286.98 352.73,290.00 C350.39,293.02 347.68,296.74 346.72,298.25 C345.75,299.76 344.38,301.00 343.69,301.00 C342.99,301.00 340.19,303.29 337.46,306.08 C330.31,313.41 309.78,326.90 305.70,326.97 C304.70,326.99 302.00,327.83 299.70,328.85 C297.39,329.87 294.71,330.98 293.75,331.32 C292.17,331.88 292.00,333.71 291.96,349.72 C291.94,359.50 291.87,381.05 291.81,397.60 C291.75,414.16 292.04,428.25 292.45,428.92 C292.88,429.61 293.92,429.83 294.85,429.44 C295.76,429.05 299.42,428.20 303.00,427.54 ZM 288.00 317.41 C288.00,322.39 286.60,323.50 282.94,321.41 C264.53,310.93 253.76,305.07 251.84,304.49 C250.55,304.10 247.48,302.54 245.00,301.01 C242.52,299.49 236.90,296.31 232.50,293.96 C223.52,289.14 223.66,289.21 215.75,285.58 L 210.00 282.94 L 210.00 276.67 C210.00,273.22 210.41,269.97 210.92,269.45 C211.43,268.93 212.05,265.35 212.30,261.50 C212.56,257.65 213.48,248.88 214.36,242.00 C215.24,235.12 216.20,227.25 216.50,224.50 C218.71,203.85 219.83,199.00 222.40,199.00 C223.58,199.00 236.20,205.44 240.00,207.98 C240.82,208.54 245.32,211.01 250.00,213.48 C254.68,215.95 260.75,219.31 263.50,220.95 C266.25,222.58 269.48,223.94 270.67,223.96 C271.86,223.98 272.98,224.38 273.17,224.85 C273.35,225.31 278.82,228.52 285.32,231.97 C298.99,239.22 300.14,240.73 297.44,247.79 C296.52,250.19 295.41,256.74 294.96,262.33 C294.51,267.92 293.21,278.58 292.08,286.00 C288.28,310.89 288.00,313.02 288.00,317.41 ZM 286.17 313.42 C286.54,310.71 287.80,300.85 288.97,291.50 C290.14,282.15 291.50,272.48 292.00,270.00 C292.88,265.60 294.25,250.93 294.42,244.05 C294.49,241.20 293.91,240.21 291.06,238.27 C289.17,236.99 286.47,235.68 285.06,235.35 C283.65,235.03 281.99,234.13 281.38,233.36 C280.76,232.60 276.04,229.79 270.88,227.13 C248.67,215.66 241.41,211.78 240.00,210.59 C239.18,209.90 235.06,207.73 230.85,205.76 C222.59,201.91 221.00,202.12 221.00,207.09 C221.00,208.57 220.35,213.10 219.56,217.14 C218.76,221.19 217.40,231.70 216.52,240.50 C215.65,249.30 214.50,259.78 213.97,263.79 C212.24,276.80 212.55,279.29 216.25,282.04 C218.04,283.37 221.98,285.72 225.00,287.27 C228.02,288.82 234.77,292.37 240.00,295.17 C245.23,297.96 253.19,302.15 257.70,304.46 C262.21,306.78 266.49,309.16 267.20,309.74 C269.83,311.90 283.53,318.96 284.50,318.65 C285.05,318.48 285.80,316.12 286.17,313.42 Z" fill="rgb(232,246,170)"/>
<path d="M 305.50 429.22 C314.50,426.63 324.27,422.93 330.12,419.90 C332.66,418.58 338.44,415.58 342.96,413.24 C353.06,408.01 368.59,396.28 380.25,385.10 C388.27,377.42 401.61,361.02 406.49,352.84 C407.59,351.00 409.96,347.02 411.77,344.00 C417.88,333.78 423.04,322.25 426.11,312.00 C427.18,308.42 428.52,304.67 429.09,303.67 C429.53,302.87 430.50,298.97 431.46,294.23 C428.74,308.15 427.17,313.44 423.07,323.82 C417.73,337.35 407.40,355.77 399.98,364.99 C388.87,378.80 377.11,390.76 367.19,398.37 C365.71,399.50 364.27,400.76 363.98,401.16 C362.38,403.37 349.47,411.20 334.50,419.02 C323.09,424.99 310.65,429.58 298.36,432.38 C289.26,434.44 289.14,434.44 288.49,431.75 C288.19,430.51 288.07,407.02 288.22,379.54 L 288.50 329.58 L 295.00 327.18 C305.93,323.13 320.55,315.39 328.73,309.32 C337.54,302.78 348.24,291.10 355.13,280.50 C368.44,260.02 375.61,228.95 371.97,207.56 C369.20,191.35 367.14,181.99 364.16,174.34 C365.79,177.90 367.00,180.89 367.01,181.67 C367.01,182.13 367.73,183.85 368.60,185.50 C372.70,193.23 374.98,224.36 372.57,239.50 C368.91,262.43 357.73,283.42 339.69,301.27 C327.40,313.44 312.30,322.77 297.24,327.51 C294.34,328.42 291.39,329.75 290.68,330.47 C289.64,331.50 289.44,340.98 289.69,377.24 C289.86,402.25 290.00,424.85 290.00,427.46 L 290.00 432.20 L 294.25 431.72 C296.59,431.45 301.65,430.33 305.50,429.22 ZM 288.00 317.41 C288.00,313.02 288.28,310.89 292.08,286.00 C293.21,278.58 294.51,267.92 294.96,262.33 C295.41,256.74 296.52,250.19 297.44,247.79 C297.77,246.94 298.04,246.16 298.24,245.45 C298.10,247.42 297.79,249.86 297.34,252.70 C296.47,258.09 295.43,266.55 295.02,271.50 C294.28,280.61 291.76,299.87 289.97,310.06 C289.44,313.12 289.00,317.51 289.00,319.81 C289.00,323.50 288.73,324.00 286.72,324.00 C285.47,324.00 283.56,323.38 282.47,322.63 C281.39,321.88 276.00,318.90 270.50,316.02 C265.00,313.14 254.74,307.57 247.70,303.64 C240.66,299.71 233.68,295.89 232.20,295.14 C230.71,294.40 226.35,291.92 222.50,289.64 C218.65,287.37 214.26,284.96 212.75,284.30 C212.13,284.03 211.64,283.80 211.27,283.52 L 215.75 285.58 C223.66,289.21 223.52,289.14 232.50,293.96 C236.90,296.31 242.52,299.49 245.00,301.01 C247.48,302.54 250.55,304.10 251.84,304.49 C253.76,305.07 264.53,310.93 282.94,321.41 C286.60,323.50 288.00,322.39 288.00,317.41 ZM 271.86 224.11 C271.50,224.02 271.08,223.97 270.67,223.96 C269.48,223.94 266.25,222.58 263.50,220.95 C260.75,219.31 254.68,215.95 250.00,213.48 C245.32,211.01 240.82,208.54 240.00,207.98 C236.20,205.44 223.58,199.00 222.40,199.00 C220.04,199.00 218.90,203.07 217.03,219.66 C217.30,216.35 217.57,212.53 217.85,208.21 C218.31,200.94 218.92,197.67 219.93,197.05 C221.45,196.11 226.65,198.47 237.50,205.03 C240.80,207.02 245.98,209.93 249.00,211.48 C256.73,215.44 260.88,217.71 265.50,220.49 C267.70,221.82 270.17,223.23 271.00,223.63 C271.29,223.77 271.58,223.93 271.86,224.11 ZM 215.53 232.68 C215.17,235.62 214.76,238.91 214.36,242.00 C213.48,248.88 212.56,257.65 212.30,261.50 C212.05,265.35 211.43,268.93 210.92,269.45 C210.43,269.95 210.03,273.00 210.00,276.32 C210.00,275.89 210.00,275.43 210.00,274.94 C210.00,266.07 213.66,236.14 214.95,234.51 C215.14,234.27 215.33,233.66 215.53,232.68 ZM 82.04 315.08 C78.82,306.38 75.85,297.16 75.06,292.93 C74.52,290.00 74.06,281.95 73.84,272.35 C74.19,278.82 74.85,284.78 75.83,289.69 C76.95,295.30 78.35,300.78 78.93,301.88 C79.52,302.97 80.00,305.24 80.00,306.92 C80.00,308.43 80.75,311.34 82.04,315.08 ZM 135.29 287.59 C134.01,300.34 134.76,314.56 137.28,326.60 C136.71,324.30 136.10,321.70 135.42,318.69 C132.86,307.42 132.56,304.93 135.29,287.59 ZM 73.81 248.88 C74.08,237.60 74.93,229.59 77.00,221.12 C75.37,228.91 74.28,238.75 73.81,248.88 ZM 163.18 376.03 C170.13,383.60 178.67,390.79 187.48,396.54 C186.85,396.14 186.24,395.75 185.66,395.37 C177.06,389.68 169.63,383.31 163.18,376.03 ZM 129.13 131.33 C140.94,120.19 155.28,110.18 170.49,102.24 C155.52,110.09 141.42,120.01 129.13,131.33 ZM 88.17 189.12 C92.78,178.40 97.99,168.84 104.22,159.85 C103.73,160.57 103.25,161.28 102.78,162.00 C97.51,170.01 92.55,179.23 88.17,189.12 ZM 432.16 290.56 C432.19,290.43 432.21,290.30 432.23,290.17 C433.32,284.14 434.11,276.36 434.52,268.49 C434.17,276.08 433.53,283.29 432.64,288.00 C432.48,288.88 432.32,289.74 432.16,290.56 ZM 204.92 405.75 C209.44,407.56 213.65,409.00 214.41,409.00 C212.91,409.00 209.29,407.70 204.92,405.75 ZM 298.14 240.95 C297.66,239.94 296.78,238.98 295.40,237.93 C296.92,239.03 297.77,239.90 298.03,240.57 C298.07,240.68 298.11,240.81 298.14,240.95 ZM 87.74 329.00 C89.13,332.02 90.92,336.08 91.73,338.00 C90.92,336.08 89.11,332.02 87.70,329.00 C87.02,327.53 86.29,325.84 85.52,323.99 C86.21,325.62 86.95,327.29 87.74,329.00 ZM 434.35 242.76 C434.26,241.79 434.15,240.86 434.04,240.00 C433.26,234.30 431.48,225.60 429.61,217.75 C431.48,225.59 433.26,234.29 434.05,240.00 C434.16,240.84 434.26,241.76 434.35,242.76 ZM 141.74 260.14 C143.59,254.77 145.56,250.10 147.01,248.00 C145.58,250.06 143.62,254.71 141.74,260.14 Z" fill="rgb(241,248,213)"/>
<path d="M 0.00 250.00 L 0.00 0.00 L 250.00 0.00 L 500.00 0.00 L 500.00 250.00 L 500.00 500.00 L 250.00 500.00 L 0.00 500.00 L 0.00 250.00 ZM 298.36 432.38 C310.65,429.58 323.09,424.99 334.50,419.02 C349.47,411.20 362.38,403.37 363.98,401.16 C364.27,400.76 365.71,399.50 367.19,398.37 C377.11,390.76 388.87,378.80 399.98,364.99 C407.40,355.77 417.73,337.35 423.07,323.82 C427.73,312.02 429.12,306.80 432.64,288.00 C434.77,276.63 435.53,250.76 434.05,240.00 C432.52,228.93 427.28,206.70 424.88,201.12 C423.85,198.72 423.00,196.33 423.00,195.82 C423.00,194.12 413.62,175.61 409.15,168.50 C397.38,149.75 380.32,131.02 364.00,118.91 C355.41,112.54 337.17,101.00 335.69,101.00 C335.15,101.00 332.40,99.91 329.60,98.58 C321.51,94.73 318.09,93.37 308.50,90.19 C296.74,86.28 291.03,85.34 289.89,87.14 C288.70,89.02 288.78,105.72 289.99,107.98 C290.53,109.00 293.80,110.80 297.24,111.98 C303.08,113.99 307.38,116.03 318.00,121.84 C323.02,124.59 339.38,137.51 343.05,141.63 C346.71,145.73 353.21,154.60 357.25,161.00 C364.87,173.07 367.51,181.41 371.97,207.56 C375.61,228.95 368.44,260.02 355.13,280.50 C348.24,291.10 337.54,302.78 328.73,309.32 C320.55,315.39 305.93,323.13 295.00,327.18 L 288.50 329.58 L 288.22 379.54 C288.07,407.02 288.19,430.51 288.49,431.75 C289.14,434.44 289.26,434.44 298.36,432.38 ZM 218.39 431.42 C218.73,430.55 219.00,425.86 219.00,420.99 C219.00,411.92 217.88,409.00 214.41,409.00 C213.62,409.00 209.11,407.44 204.39,405.54 C186.91,398.49 166.99,382.69 155.81,367.00 C150.95,360.17 143.17,345.47 140.43,337.94 C134.70,322.14 133.04,298.09 136.41,279.50 C138.26,269.27 143.91,252.48 147.01,248.00 C147.96,246.62 149.05,244.49 149.44,243.25 C149.82,242.01 150.57,241.00 151.09,241.00 C151.62,241.00 152.49,239.83 153.04,238.40 C154.44,234.71 164.89,222.34 171.20,216.89 C181.86,207.69 198.15,198.42 210.44,194.56 C217.34,192.39 217.51,192.26 218.19,188.42 C219.05,183.59 219.24,89.78 218.39,87.58 C217.57,85.44 215.02,85.60 205.00,88.40 C177.87,95.99 149.67,111.94 129.12,131.34 C108.01,151.26 94.98,170.71 84.78,197.50 C75.02,223.16 73.54,231.98 73.71,263.43 C73.79,276.69 74.36,289.12 75.06,292.93 C76.33,299.70 83.19,319.30 87.70,329.00 C89.11,332.02 90.92,336.08 91.73,338.00 C94.56,344.72 105.80,362.01 113.50,371.49 C122.66,382.76 141.26,399.41 154.50,408.18 C165.40,415.40 182.53,423.58 195.07,427.56 C201.35,429.56 207.62,431.56 209.00,432.02 C213.26,433.43 217.73,433.14 218.39,431.42 ZM 289.00 319.81 C289.00,317.51 289.44,313.12 289.97,310.06 C291.76,299.87 294.28,280.61 295.02,271.50 C295.43,266.55 296.47,258.09 297.34,252.70 C298.35,246.41 298.60,242.07 298.03,240.57 C297.42,238.97 293.45,236.28 285.32,231.97 C278.82,228.52 273.27,225.39 273.00,225.02 C272.73,224.66 271.83,224.03 271.00,223.63 C270.17,223.23 267.70,221.82 265.50,220.49 C260.88,217.71 256.73,215.44 249.00,211.48 C245.98,209.93 240.80,207.02 237.50,205.03 C226.65,198.47 221.45,196.11 219.93,197.05 C218.92,197.67 218.31,200.94 217.85,208.21 C216.83,224.20 215.82,233.41 214.95,234.51 C213.66,236.14 210.00,266.07 210.00,274.94 C210.00,282.88 210.07,283.13 212.75,284.30 C214.26,284.96 218.65,287.37 222.50,289.64 C226.35,291.92 230.71,294.40 232.20,295.14 C233.68,295.89 240.66,299.71 247.70,303.64 C254.74,307.57 265.00,313.14 270.50,316.02 C276.00,318.90 281.39,321.88 282.47,322.63 C283.56,323.38 285.47,324.00 286.72,324.00 C288.73,324.00 289.00,323.50 289.00,319.81 Z" fill="rgb(254,254,254)"/>
</g>
</svg>