<?xml version="1.0" encoding="UTF-8"?>
<svg xmlns="http://www.w3.org/2000/svg" xmlns:xlink="http://www.w3.org/1999/xlink" width="480px" height="480px" viewBox="0 0 480 480" version="1.1">
<g id="surface1">
<path style=" stroke:none;fill-rule:nonzero;fill:rgb(99.215686%,99.607843%,99.607843%);fill-opacity:1;" d="M 203.4375 66.5625 C 203.4375 100.285156 203.4375 134.007812 203.4375 168.75 C 199.726562 170.296875 196.011719 171.84375 192.1875 173.4375 C 178.226562 179.925781 166.1875 187.570312 154.6875 197.8125 C 154.058594 198.359375 153.433594 198.90625 152.785156 199.472656 C 134.328125 216.625 122.191406 244.699219 120.742188 269.582031 C 119.53125 303.4375 128.136719 333.585938 151.320312 358.828125 C 166.027344 374.390625 183.195312 384.191406 203.4375 390.9375 C 203.4375 398.363281 203.4375 405.789062 203.4375 413.4375 C 185.242188 410.019531 169.109375 404.386719 152.8125 395.625 C 152.257812 395.335938 151.703125 395.042969 151.132812 394.742188 C 137.957031 387.800781 126.03125 378.761719 115.3125 368.4375 C 114.8125 367.960938 114.3125 367.484375 113.796875 366.996094 C 106.023438 359.570312 98.988281 351.945312 92.8125 343.125 C 92.40625 342.550781 92 341.980469 91.582031 341.390625 C 75.308594 318.214844 64.976562 291.425781 60.9375 263.4375 C 60.84375 262.792969 60.75 262.144531 60.652344 261.480469 C 54.835938 216.398438 67.710938 168.789062 95.359375 132.789062 C 119.46875 101.949219 162.070312 66.5625 203.4375 66.5625 Z M 203.4375 66.5625 "/>
<path style=" stroke:none;fill-rule:nonzero;fill:rgb(99.215686%,99.607843%,99.607843%);fill-opacity:1;" d="M 276.5625 66.5625 C 311.523438 69.417969 343.703125 90.835938 368.4375 114.375 C 369.097656 114.988281 369.757812 115.597656 370.441406 116.226562 C 401.417969 145.761719 418.867188 190.144531 420.238281 232.386719 C 420.878906 262.292969 415.585938 290.945312 402.1875 317.8125 C 401.875 318.4375 401.566406 319.066406 401.246094 319.710938 C 393.378906 335.402344 383.246094 349.082031 371.25 361.875 C 370.820312 362.335938 370.386719 362.800781 369.945312 363.277344 C 350.609375 383.878906 326.042969 398.59375 299.355469 407.636719 C 298.589844 407.898438 297.820312 408.15625 297.03125 408.425781 C 290.230469 410.636719 283.660156 411.917969 276.5625 413.4375 C 276.5625 379.40625 276.5625 345.375 276.5625 310.3125 C 281.203125 308.457031 281.203125 308.457031 285.9375 306.5625 C 297.128906 301.773438 307.617188 296.757812 316.875 288.75 C 317.707031 288.035156 318.542969 287.316406 319.402344 286.578125 C 321.726562 284.527344 323.992188 282.433594 326.25 280.3125 C 327.082031 279.589844 327.082031 279.589844 327.925781 278.851562 C 342.246094 265.785156 350.996094 246.074219 356.25 227.8125 C 356.515625 226.902344 356.515625 226.902344 356.785156 225.972656 C 364.484375 197.683594 358.292969 166.167969 344.117188 141.058594 C 329.660156 116.324219 306.957031 99.0625 280.066406 89.980469 C 277.5 89.0625 277.5 89.0625 276.5625 88.125 C 276.480469 86.523438 276.460938 84.917969 276.472656 83.316406 C 276.472656 82.347656 276.476562 81.378906 276.480469 80.378906 C 276.488281 79.355469 276.496094 78.335938 276.503906 77.285156 C 276.507812 76.261719 276.511719 75.238281 276.515625 74.179688 C 276.527344 71.640625 276.542969 69.101562 276.5625 66.5625 Z M 276.5625 66.5625 "/>
<path style=" stroke:none;fill-rule:nonzero;fill:rgb(99.215686%,99.215686%,99.607843%);fill-opacity:1;" d="M 207.1875 180.9375 C 212.203125 181.464844 216.003906 183.203125 220.4375 185.433594 C 221.171875 185.796875 221.902344 186.15625 222.660156 186.53125 C 224.230469 187.304688 225.796875 188.082031 227.367188 188.863281 C 231.476562 190.910156 235.601562 192.9375 239.726562 194.964844 C 240.546875 195.367188 241.371094 195.773438 242.21875 196.191406 C 250.523438 200.273438 258.90625 204.175781 267.320312 208.03125 C 273.273438 210.765625 279.164062 213.589844 285 216.5625 C 284.566406 226.558594 283.261719 236.105469 281.367188 245.917969 C 280.980469 247.980469 280.59375 250.039062 280.207031 252.101562 C 279.957031 253.441406 279.707031 254.785156 279.453125 256.125 C 278.546875 260.9375 277.699219 265.753906 276.914062 270.585938 C 275.316406 280.40625 273.589844 290.199219 271.875 300 C 262.171875 296.179688 252.695312 291.902344 243.398438 287.183594 C 227.117188 278.941406 210.542969 271.269531 194.0625 263.4375 C 193.902344 257.949219 194.457031 253.09375 195.585938 247.734375 C 197.46875 238.351562 199.070312 228.933594 200.625 219.492188 C 201.105469 216.578125 201.585938 213.667969 202.066406 210.753906 C 202.183594 210.046875 202.300781 209.34375 202.421875 208.613281 C 203.949219 199.378906 205.5625 190.15625 207.1875 180.9375 Z M 207.1875 180.9375 "/>
</g>
</svg>
