<svg xmlns="http://www.w3.org/2000/svg" width="512" height="512" viewBox="0 0 512 512">
<g>
<path d="M 205.77 493.39 C206.03,509.71 205.92,510.99 204.27,510.92 C199.02,510.67 171.16,501.89 158.50,496.50 C144.32,490.45 120.99,477.56 112.00,470.79 C78.63,445.68 61.80,427.52 39.60,392.68 C35.05,385.55 24.16,363.83 20.69,355.00 C13.04,335.49 6.40,308.96 3.91,287.99 C2.35,274.82 2.32,240.71 3.86,227.50 C6.65,203.52 15.45,170.89 24.22,152.00 C32.24,134.72 33.18,133.00 34.23,133.64 C34.88,134.04 35.02,133.84 34.58,133.12 C34.17,132.47 35.07,129.82 36.57,127.22 C39.29,122.51 52.04,103.08 53.95,100.74 C54.50,100.06 57.63,96.12 60.89,92.00 C70.30,80.09 96.36,55.07 107.00,47.72 C117.17,40.70 126.96,34.31 131.34,31.85 C138.03,28.08 160.77,17.03 164.00,15.97 C165.38,15.52 168.98,14.18 172.00,12.99 C178.48,10.45 195.41,5.37 200.17,4.54 C202.00,4.22 204.11,4.36 204.86,4.86 C206.86,6.17 207.78,155.67 205.81,158.14 C205.09,159.04 201.35,160.79 197.50,162.02 C175.89,168.97 154.05,182.78 135.96,200.92 C112.37,224.58 99.53,248.73 91.80,284.00 C89.75,293.35 89.51,297.08 89.55,318.00 C89.60,344.28 90.55,350.65 97.51,371.45 C113.16,418.23 150.13,456.13 196.00,472.41 L 205.50 475.79 ZM 318.64 508.46 C306.22,511.66 305.36,511.65 304.73,508.38 C304.46,506.94 304.15,473.04 304.06,433.05 C304.05,428.58 304.04,424.38 304.03,420.43 C303.89,367.14 303.87,359.81 306.87,358.24 C307.57,357.88 308.43,357.83 309.50,357.58 C313.17,356.73 324.04,352.61 329.61,349.96 C331.87,348.88 334.26,348.00 334.92,348.00 C335.58,348.00 339.13,345.89 342.81,343.31 C346.49,340.73 350.85,337.69 352.51,336.56 C375.55,320.78 396.02,295.96 407.95,269.32 C424.13,233.17 426.88,190.04 415.51,150.83 C401.12,101.19 362.51,59.89 313.68,41.88 C309.21,40.23 305.20,38.35 304.79,37.69 C303.57,35.78 303.83,5.00 305.06,5.00 C305.64,5.00 305.84,4.55 305.50,4.00 C304.60,2.55 305.83,2.72 316.80,5.55 C325.68,7.83 333.34,10.35 347.00,15.47 C354.67,18.35 379.14,30.67 386.50,35.35 C420.42,56.96 450.32,87.19 469.72,119.50 C493.15,158.51 505.46,197.45 508.12,241.00 C510.96,287.48 502.11,332.71 482.42,372.27 C466.91,403.44 449.31,426.92 423.42,451.01 C395.45,477.04 355.37,499.02 318.64,508.46 ZM 304.39 347.75 C304.06,349.98 303.38,350.99 302.20,350.96 C301.27,350.93 293.30,346.84 284.50,341.86 C275.70,336.88 266.63,331.75 264.33,330.47 C262.04,329.18 254.62,325.02 247.83,321.21 C241.05,317.40 228.75,310.56 220.50,306.01 C203.77,296.78 193.78,290.89 192.95,289.77 C192.65,289.37 193.43,280.81 194.68,270.77 C195.94,260.72 197.63,246.65 198.44,239.50 C199.25,232.35 201.28,215.25 202.96,201.50 C204.64,187.75 206.30,174.16 206.64,171.31 C206.98,168.45 207.83,165.90 208.52,165.63 C209.67,165.19 219.50,170.57 264.50,196.27 C273.30,201.29 282.30,206.39 284.50,207.59 C286.70,208.79 295.02,213.56 303.00,218.20 L 317.50 226.63 L 317.36 235.06 C317.28,239.70 316.51,248.68 315.64,255.00 C313.86,268.06 310.12,298.71 306.99,326.00 C305.83,336.17 304.65,345.96 304.39,347.75 Z" fill="rgb(223,232,139)"/>
<path d="M 0.00 256.00 L 0.00 0.00 L 256.00 0.00 L 512.00 0.00 L 512.00 256.00 L 512.00 512.00 L 256.00 512.00 L 0.00 512.00 L 0.00 256.00 ZM 205.77 493.39 L 205.50 475.79 L 196.00 472.41 C150.13,456.13 113.16,418.23 97.51,371.45 C90.55,350.65 89.60,344.28 89.55,318.00 C89.51,297.08 89.75,293.35 91.80,284.00 C99.53,248.73 112.37,224.58 135.96,200.92 C154.05,182.78 175.89,168.97 197.50,162.02 C201.35,160.79 205.09,159.04 205.81,158.14 C207.78,155.67 206.86,6.17 204.86,4.86 C204.11,4.36 202.00,4.22 200.17,4.54 C195.41,5.37 178.48,10.45 172.00,12.99 C168.98,14.18 165.38,15.52 164.00,15.97 C160.77,17.03 138.03,28.08 131.34,31.85 C126.96,34.31 117.17,40.70 107.00,47.72 C96.36,55.07 70.30,80.09 60.89,92.00 C57.63,96.12 54.50,100.06 53.95,100.74 C52.04,103.08 39.29,122.51 36.57,127.22 C35.07,129.82 34.17,132.47 34.58,133.12 C35.02,133.84 34.88,134.04 34.23,133.64 C33.18,133.00 32.24,134.72 24.22,152.00 C15.45,170.89 6.65,203.52 3.86,227.50 C2.32,240.71 2.35,274.82 3.91,287.99 C6.40,308.96 13.04,335.49 20.69,355.00 C24.16,363.83 35.05,385.55 39.60,392.68 C61.80,427.52 78.63,445.68 112.00,470.79 C120.99,477.56 144.32,490.45 158.50,496.50 C171.16,501.89 199.02,510.67 204.27,510.92 C205.92,510.99 206.03,509.71 205.77,493.39 ZM 318.64 508.46 C355.37,499.02 395.45,477.04 423.42,451.01 C449.31,426.92 466.91,403.44 482.42,372.27 C502.11,332.71 510.96,287.48 508.12,241.00 C505.46,197.45 493.15,158.51 469.72,119.50 C450.32,87.19 420.42,56.96 386.50,35.35 C379.14,30.67 354.67,18.35 347.00,15.47 C333.34,10.35 325.68,7.83 316.80,5.55 C305.83,2.72 304.60,2.55 305.50,4.00 C305.84,4.55 305.64,5.00 305.06,5.00 C303.83,5.00 303.57,35.78 304.79,37.69 C305.20,38.35 309.21,40.23 313.68,41.88 C362.51,59.89 401.12,101.19 415.51,150.83 C426.88,190.04 424.13,233.17 407.95,269.32 C396.02,295.96 375.55,320.78 352.51,336.56 C350.85,337.69 346.49,340.73 342.81,343.31 C339.13,345.89 335.58,348.00 334.92,348.00 C334.26,348.00 331.87,348.88 329.61,349.96 C324.04,352.61 313.17,356.73 309.50,357.58 C303.53,358.96 303.88,354.16 304.06,433.05 C304.15,473.04 304.46,506.94 304.73,508.38 C305.36,511.65 306.22,511.66 318.64,508.46 ZM 304.39 347.75 C304.65,345.96 305.83,336.17 306.99,326.00 C310.12,298.71 313.86,268.06 315.64,255.00 C316.51,248.68 317.28,239.70 317.36,235.06 L 317.50 226.63 L 303.00 218.20 C295.02,213.56 286.70,208.79 284.50,207.59 C282.30,206.39 273.30,201.29 264.50,196.27 C219.50,170.57 209.67,165.19 208.52,165.63 C207.83,165.90 206.98,168.45 206.64,171.31 C206.30,174.16 204.64,187.75 202.96,201.50 C201.28,215.25 199.25,232.35 198.44,239.50 C197.63,246.65 195.94,260.72 194.68,270.77 C193.43,280.81 192.65,289.37 192.95,289.77 C193.78,290.89 203.77,296.78 220.50,306.01 C228.75,310.56 241.05,317.40 247.83,321.21 C254.62,325.02 262.04,329.18 264.33,330.47 C266.63,331.75 275.70,336.88 284.50,341.86 C293.30,346.84 301.27,350.93 302.20,350.96 C303.38,350.99 304.06,349.98 304.39,347.75 Z" fill="rgb(254,254,254)"/>
</g>
</svg>
