<svg width="512" height="512" viewBox="0 0 100.277 96.783" fill="none" xmlns="http://www.w3.org/2000/svg">
  <g fill="#e7ff91">
    <path d="M60.601 0v6.149c13.483 3.857 23.354 16.255 23.354 30.969s-9.872 27.124-23.354 30.969v28.689c22.786-4.332 40.009-24.345 40.009-48.391S83.386 4.332 60.601 0M16.987 59.664v-.006c0-14.72 9.872-27.124 23.354-30.969V.006C17.561 4.332.333 24.345.333 48.391S17.562 92.45 40.342 96.783v-6.149c-13.483-3.857-23.354-16.255-23.354-30.969"/>
    <path d="m41.508 31.802-3.933 23.026 21.66 10.329 3.934-23.038z"/>
  </g>
</svg>
